<svg id="visual" viewBox="0 0 900 600" width="900" height="600" xmlns="http://www.w3.org/2000/svg" xmlns:xlink="http://www.w3.org/1999/xlink" version="1.1"><rect x="0" y="0" width="900" height="600" fill="#001220"></rect><path d="M0 425L21.5 418C43 411 86 397 128.8 389.3C171.7 381.7 214.3 380.3 257.2 384C300 387.7 343 396.3 385.8 419.3C428.7 442.3 471.3 479.7 514.2 481C557 482.3 600 447.7 642.8 439.5C685.7 431.3 728.3 449.7 771.2 466.7C814 483.7 857 499.3 878.5 507.2L900 515L900 601L878.5 601C857 601 814 601 771.2 601C728.3 601 685.7 601 642.8 601C600 601 557 601 514.2 601C471.3 601 428.7 601 385.8 601C343 601 300 601 257.2 601C214.3 601 171.7 601 128.8 601C86 601 43 601 21.5 601L0 601Z" fill="#fa7268"></path><path d="M0 504L21.5 506.3C43 508.7 86 513.3 128.8 518.2C171.7 523 214.3 528 257.2 512.2C300 496.3 343 459.7 385.8 446.3C428.7 433 471.3 443 514.2 453.3C557 463.7 600 474.3 642.8 479.3C685.7 484.3 728.3 483.7 771.2 476.5C814 469.3 857 455.7 878.5 448.8L900 442L900 601L878.5 601C857 601 814 601 771.2 601C728.3 601 685.7 601 642.8 601C600 601 557 601 514.2 601C471.3 601 428.7 601 385.8 601C343 601 300 601 257.2 601C214.3 601 171.7 601 128.8 601C86 601 43 601 21.5 601L0 601Z" fill="#ef5f67"></path><path d="M0 453L21.5 457.2C43 461.3 86 469.7 128.8 474.7C171.7 479.7 214.3 481.3 257.2 488.5C300 495.7 343 508.3 385.8 506C428.7 503.7 471.3 486.3 514.2 477.2C557 468 600 467 642.8 470.7C685.7 474.3 728.3 482.7 771.2 487.8C814 493 857 495 878.5 496L900 497L900 601L878.5 601C857 601 814 601 771.2 601C728.3 601 685.7 601 642.8 601C600 601 557 601 514.2 601C471.3 601 428.7 601 385.8 601C343 601 300 601 257.2 601C214.3 601 171.7 601 128.8 601C86 601 43 601 21.5 601L0 601Z" fill="#e34c67"></path><path d="M0 536L21.5 535.2C43 534.3 86 532.7 128.8 536C171.7 539.3 214.3 547.7 257.2 545.2C300 542.7 343 529.3 385.8 520C428.7 510.7 471.3 505.3 514.2 512.2C557 519 600 538 642.8 544.3C685.7 550.7 728.3 544.3 771.2 536.3C814 528.3 857 518.7 878.5 513.8L900 509L900 601L878.5 601C857 601 814 601 771.2 601C728.3 601 685.7 601 642.8 601C600 601 557 601 514.2 601C471.3 601 428.7 601 385.8 601C343 601 300 601 257.2 601C214.3 601 171.7 601 128.8 601C86 601 43 601 21.5 601L0 601Z" fill="#d53867"></path><path d="M0 569L21.5 565.3C43 561.7 86 554.3 128.8 550C171.7 545.7 214.3 544.3 257.2 546.8C300 549.3 343 555.7 385.8 559.7C428.7 563.7 471.3 565.3 514.2 564.5C557 563.7 600 560.3 642.8 558.8C685.7 557.3 728.3 557.7 771.2 557.8C814 558 857 558 878.5 558L900 558L900 601L878.5 601C857 601 814 601 771.2 601C728.3 601 685.7 601 642.8 601C600 601 557 601 514.2 601C471.3 601 428.7 601 385.8 601C343 601 300 601 257.2 601C214.3 601 171.7 601 128.8 601C86 601 43 601 21.5 601L0 601Z" fill="#c62368"></path></svg>