<svg id="visual" viewBox="0 0 450 900" width="450" height="900" xmlns="http://www.w3.org/2000/svg" xmlns:xlink="http://www.w3.org/1999/xlink" version="1.1"><rect x="0" y="0" width="450" height="900" fill="#001220"></rect><path d="M0 310L25 304.3C50 298.7 100 287.3 150 291.3C200 295.3 250 314.7 300 326.3C350 338 400 342 425 344L450 346L450 901L425 901C400 901 350 901 300 901C250 901 200 901 150 901C100 901 50 901 25 901L0 901Z" fill="#470c25"></path><path d="M0 508L25 497.3C50 486.7 100 465.3 150 466.5C200 467.7 250 491.3 300 498.2C350 505 400 495 425 490L450 485L450 901L425 901C400 901 350 901 300 901C250 901 200 901 150 901C100 901 50 901 25 901L0 901Z" fill="#9e3a4b"></path><path d="M0 714L25 706.2C50 698.3 100 682.7 150 677.5C200 672.3 250 677.7 300 681.5C350 685.3 400 687.7 425 688.8L450 690L450 901L425 901C400 901 350 901 300 901C250 901 200 901 150 901C100 901 50 901 25 901L0 901Z" fill="#fa7268"></path></svg>